<svg width="795" height="843" viewBox="0 0 795 843" fill="none" xmlns="http://www.w3.org/2000/svg">
<path d="M727.104 620C694.604 620 552.937 626.833 480.604 635C483.437 640.333 492.306 656.604 494.604 680.5C497.104 706.5 494.77 735.167 494.604 747.5C580.937 756.667 760.704 773.8 769.104 771C779.604 767.5 796.604 744 794.604 697.5C791.916 635 754.604 620 727.104 620Z" fill="#2F72F0"/>
<path d="M500.604 433L400.104 607C377.937 565.667 326.904 473 300.104 433C273.304 393 194.604 449.667 158.604 483C130.604 520.5 80.7037 597.8 105.104 607C135.604 618.5 355.604 623 400.104 623.5C435.704 623.9 597.604 612.667 674.104 607C697.27 604 722.804 575.8 639.604 487C556.404 398.2 512.27 414 500.604 433Z" fill="#2F72F0"/>
<path d="M407.104 249.5C368.498 251.645 302.794 227.862 265.942 214.333C259.886 212.111 253.38 216.139 253.036 222.581C249.252 293.304 282.183 376.562 400.104 374.5C509.14 372.594 540.867 291.66 536.393 224.645C535.962 218.182 529.323 214.298 523.305 216.691C494.378 228.193 444.516 247.422 407.104 249.5Z" fill="#2F72F0"/>
<path d="M398.016 155.318L257.653 118.309C251.311 116.637 245.073 121.422 245.367 127.974C246.53 153.9 252.192 180.085 274.604 201.5C292.604 218.7 356.604 236.5 403.104 236.5C450.604 231 516.004 213.9 531.604 191.5C543.913 173.824 549.353 146.684 551.018 127.915C551.597 121.394 545.433 116.675 539.115 118.391L403.186 155.299C401.494 155.758 399.711 155.765 398.016 155.318Z" fill="#2F72F0"/>
<path d="M393.799 0.551887L161.173 56.2449C151.204 58.6316 150.853 72.6864 160.691 75.5671L393.321 143.685C395.139 144.217 397.07 144.223 398.89 143.7L636.229 75.5833C646.132 72.7409 645.785 58.5896 635.755 56.2358L398.411 0.541505C396.894 0.185435 395.314 0.188991 393.799 0.551887Z" fill="#2F72F0"/>
<path d="M417.149 402H378.649C374.983 403.333 368.149 408.2 370.149 417C372.149 425.8 381.649 427 386.149 426.5V472.5C380.483 476.333 368.849 488.7 367.649 507.5C366.449 526.3 389.149 553 400.649 564C410.649 549.5 430.549 517.1 430.149 503.5C429.749 489.9 417.316 475.833 411.149 470.5V426.5H420.649C422.149 425.667 425.349 422.1 426.149 414.5C426.949 406.9 420.483 403 417.149 402Z" fill="#2F72F0"/>
<path d="M327.604 634.5L68.6038 619.5C49.1037 619.5 3.10386 634.5 0.103782 706.5C-2.58379 771 47.6038 802 72.1038 803C91.7038 803.8 247.77 792.167 322.604 786.5L336.104 762.5C259.937 767 92.6038 777.5 72.1038 777.5C51.6038 777.5 28.0517 750.209 23.1038 722.5C18.1038 694.5 38.6038 649 65.1038 645.5C91.6038 642 103.604 663.5 106.604 678C109.604 692.5 108.829 721.047 85.1038 722.5C60.6038 724 71.1038 684 57.6038 681C44.1038 678 35.1038 703.5 42.1038 728.5C49.1038 753.5 58.6038 762 75.1038 766.5L343.104 750C347.937 744 356.504 723.4 352.104 689C347.704 654.6 333.937 638.333 327.604 634.5Z" fill="#2F72F0"/>
<path d="M465.604 637.5H351.104C356.437 648.5 367.404 678.4 368.604 710C369.804 741.6 352.937 770.5 345.604 781.5C380.27 783.667 461.104 779.5 461.104 779.5C474.604 769 480.604 739.033 480.604 704.5C480.604 678.5 471.104 648.333 465.604 637.5Z" fill="#2F72F0"/>
<path d="M494.604 761.5L483.104 783C553.937 788.333 701.404 799.3 724.604 800.5C747.804 801.7 759.937 789.333 763.104 783L494.604 761.5Z" fill="#2F72F0"/>
<path d="M450.799 797H380.97C372.326 797 367.26 807.641 372.505 814.512C384.025 829.606 396.493 845.303 405.604 842.5C410.31 841.052 410.604 829.5 413.604 826.5C416.604 823.5 425.104 825.5 431.104 825C435.904 824.6 455.104 830.5 464.104 833.5C466.937 834.667 473.404 836.8 476.604 836C479.804 835.2 478.27 830.333 477.104 828L459.079 801.392C457.218 798.645 454.117 797 450.799 797Z" fill="#2F72F0"/>
</svg>
